<?xml version="1.0" encoding="UTF-8" standalone="no"?>
<svg
   width="498.05698"
   height="461.32974"
   version="1.1"
   id="svg385"
   sodipodi:docname="3.svg"
   inkscape:version="1.4.3 (0d15f75, 2025-12-25)"
   xmlns:inkscape="http://www.inkscape.org/namespaces/inkscape"
   xmlns:sodipodi="http://sodipodi.sourceforge.net/DTD/sodipodi-0.dtd"
   xmlns="http://www.w3.org/2000/svg"
   xmlns:svg="http://www.w3.org/2000/svg">
  <sodipodi:namedview
     id="namedview1"
     pagecolor="#ffffff"
     bordercolor="#000000"
     borderopacity="0.25"
     inkscape:showpageshadow="2"
     inkscape:pageopacity="0.0"
     inkscape:pagecheckerboard="0"
     inkscape:deskcolor="#d1d1d1"
     inkscape:zoom="2.4330097"
     inkscape:cx="277.84517"
     inkscape:cy="257.5"
     inkscape:window-width="2560"
     inkscape:window-height="1530"
     inkscape:window-x="-11"
     inkscape:window-y="25"
     inkscape:window-maximized="1"
     inkscape:current-layer="svg385" />
  <defs
     id="defs389" />
  <path
     style="fill:#00ff00;stroke:none;stroke-width:0.895785"
     d="M 15.228361,0.6469635 13.436789,1.8910758 12.541004,2.7122338 10.749432,4.4789298 9.8536456,5.3747158 7.1662877,8.0620737 5.3747158,9.8536456 4.4789298,10.749432 2.7122428,12.541004 1.8911027,13.436789 0.64695454,15.228361 0.29859233,16.124147 0.09953078,17.019933 0,18.811505 v 0.895786 2.687358 12.541004 42.997726 25.977801 4.47892 1.79157 0.89579 l 0.02488494,1.79158 0.07464584,0.89578 0.54742376,1.79157 1.24414816,1.79157 0.8211401,0.89579 1.766687,1.79157 1.791572,1.79157 1.7915719,1.79157 0.8708831,0.89579 0.8460699,0.89579 1.5178203,1.79157 1.4432,1.71722 1.592528,1.51746 0.821168,0.69692 1.51782,1.51746 0.671838,0.84652 1.318777,1.76649 0.647026,0.89578 1.045024,1.79157 0.398177,0.89579 0.398087,0.89579 0.622123,1.79157 0.24876,0.89579 0.174231,0.89578 0.124424,0.89579 0.07462,1.79157 v 0.89578 0.89579 1.79158 9.85364 31.35251 97.64067 20.60307 4.47894 1.79157 l -0.0249,0.89578 -0.04972,0.89579 -0.298655,1.79158 -0.522512,1.79157 -0.298565,0.89578 -0.67184,1.79157 -0.42308,0.89579 -0.472706,0.89578 -0.572318,0.89579 -0.622122,0.89578 -1.492918,1.79158 -0.846069,0.89579 -0.870884,0.89578 -1.791572,1.79157 -0.895785,0.89579 -1.791572,1.79157 -4.4789302,4.47893 -1.791572,1.79157 -1.766687,1.79157 -1.5178645,1.79157 -0.54742376,0.8958 -0.34836221,0.89578 -0.19906155,0.89579 L 0,349.35653 v 0.89578 2.68736 13.43679 42.99773 26.87358 3.58314 1.79157 0.89578 l 0.07464584,1.79158 0.37324714,1.79157 0.39812311,0.89579 1.16950231,1.79157 1.5925104,1.79157 1.766687,1.79157 1.7915719,1.79158 1.7915719,1.79157 1.7915724,1.79157 0.895786,0.8707 0.895786,0.82144 1.791571,1.24424 1.791572,0.54733 0.895786,0.0743 1.791572,0.0251 h 1.791572 2.687358 19.707291 69.871314 85.99544 180.05298 74.35024 20.60308 2.68735 1.79157 l 1.79158,-0.0251 0.89579,-0.0743 1.79157,-0.54733 1.79157,-1.24424 0.89578,-0.82144 1.79157,-1.76649 0.89579,-0.89578 2.68736,-2.68736 1.79157,-1.79158 0.89579,-0.89578 0.89578,-0.89579 1.69214,-1.79157 1.24425,-1.79157 0.34846,-0.89578 0.19887,-0.89579 0.0994,-1.79158 v -0.89578 -2.68736 -12.541 -42.99773 -1.79157 -24.18622 -4.47893 -1.79157 -0.89579 -0.89578 l -0.0994,-1.79157 -0.54733,-1.79157 -1.24425,-1.79158 -0.82144,-0.89579 -1.76648,-1.79157 -1.79157,-1.79157 -5.37472,-5.37472 -1.79157,-1.79157 -0.89579,-0.89578 -0.89578,-0.89579 -1.71722,-1.79157 -1.49238,-1.79157 -1.24426,-1.79158 -0.54732,-0.89578 -0.89579,-1.79157 -0.34846,-0.89579 -0.54732,-1.79157 -0.17468,-0.89578 -0.12451,-0.89579 -0.0743,-1.79158 v -0.89578 -0.89579 -1.79157 -9.85364 -32.2483 -97.64067 -19.70729 -3.58314 -1.79157 -1.79158 l 0.0743,-1.79157 0.12451,-0.89579 0.17468,-0.89578 0.24813,-0.89579 0.62257,-1.79157 0.39773,-0.89578 0.84652,-1.79158 0.42281,-0.89579 1.09466,-1.79157 1.44311,-1.79157 1.71722,-1.79157 1.79157,-1.79157 0.89578,-0.89579 1.79157,-1.79157 4.47894,-4.47893 1.79157,-1.79157 1.76648,-1.79157 1.51836,-1.79157 0.54733,-0.89579 0.34846,-0.89578 0.19887,-0.89579 0.0994,-1.79157 V 111.07746 108.3901 95.849101 52.851372 25.977793 22.394649 20.603077 18.811505 l -0.0251,-0.895786 -0.0744,-0.895786 -0.19887,-0.895786 -0.89579,-1.791572 -1.51836,-1.791571 -1.76648,-1.791572 -0.89579,-0.8957864 -2.68735,-2.6873579 -1.79158,-1.7915719 -0.89579,-0.895786 -1.79157,-1.766696 -0.89578,-0.821158 L 482.82864,0.6469635 481.93285,0.29862816 480.14128,0.02487598 478.3497,0 h -1.79157 -4.47892 -19.7073 H 386.08375 335.91973 120.03532 45.685084 25.082007 21.498863 19.707291 18.811505 l -1.791572,0.0995039 -1.791572,0.5474596 m 2.687358,2.3389688 1.791572,-0.2736985 0.895786,-0.024876 h 1.791572 1.791572 4.47893 22.394649 76.14181 254.40321 73.45445 17.01994 2.68735 1.79157 l 1.79157,0.024876 1.79158,0.2736985 0.89579,0.3483891 1.79157,1.2441392 0.89578,0.8211311 1.79157,1.766696 1.79157,1.7915719 2.68737,2.6873584 0.89578,0.895786 1.76649,1.791571 1.51835,1.791572 0.89579,1.791572 0.19886,0.895786 0.0744,0.895786 0.0251,0.895786 v 0.895786 2.687358 15.228361 52.85137 14.332578 2.68736 0.89578 l -0.0994,1.79157 -0.54732,1.79158 -1.24425,1.79157 -0.82143,0.89579 -1.76649,1.79157 -1.79157,1.79157 -6.2705,6.2705 -1.79157,1.79157 -1.76649,1.79157 -0.84653,0.89579 -1.44311,1.79157 -1.09465,1.79157 -0.42281,0.89579 -0.47297,0.89578 -0.77127,1.79157 -0.62257,1.79158 -0.24814,0.89579 -0.17467,0.89578 -0.12452,0.89579 -0.0743,1.79157 v 1.79157 1.79157 4.47893 18.81151 60.01766 60.01765 18.81152 4.47892 1.79157 1.79157 l 0.0743,1.79158 0.12452,0.89579 0.17467,0.89578 0.54733,1.79157 0.34846,0.89579 0.89578,1.79157 0.54733,0.89578 1.24424,1.79158 1.49238,1.79157 1.71723,1.79157 0.89579,0.89579 0.89578,0.89578 1.79157,1.79157 5.37472,5.37472 1.79157,1.79157 1.76649,1.79157 0.82143,0.8958 1.24425,1.79157 0.54732,1.79157 0.0994,1.79157 v 0.89578 0.89579 2.68736 1.79157 57.3303 18.8115 5.37472 1.79157 l -0.0251,0.89579 -0.0744,0.89578 -0.54732,1.79158 -1.24425,1.79157 -1.69213,1.79157 -0.89579,0.89579 -0.89578,0.89578 -1.79158,1.79157 -1.79157,1.79158 -0.89579,0.89579 -0.89578,0.89578 -1.79157,1.69214 -1.79157,1.24425 -0.89579,0.34846 -1.79158,0.27321 -0.89578,0.0251 h -1.79157 -1.79157 -4.47894 H 446.9972 370.85539 118.24375 42.997726 25.082007 22.394649 20.603077 l -1.791572,-0.0251 -0.895786,-0.0743 -1.791572,-0.54732 -1.791572,-1.24425 -0.895786,-0.82144 -0.895785,-0.8707 -1.791572,-1.79157 -0.8957864,-0.89579 -1.7915719,-1.79157 -0.895786,-0.89579 -0.870901,-0.89578 -1.5925104,-1.79157 -1.1695023,-1.79157 -0.3981231,-0.89579 -0.3732471,-1.79158 -0.074646,-1.79157 v -0.89578 -0.89579 -1.79157 -13.43679 -53.74716 -15.22835 -2.68737 -0.89578 l 0.099531,-1.79157 0.5474237,-1.79157 1.2441482,-1.79157 0.8211401,-0.8958 1.766687,-1.79157 1.7915719,-1.79157 4.4789303,-4.47892 1.791571,-1.79158 0.895786,-0.89579 0.895786,-0.89578 1.76667,-1.79157 0.846069,-0.89579 1.492918,-1.79157 1.19444,-1.79158 0.895786,-1.79157 0.67184,-1.79157 0.572317,-1.79157 0.422991,-1.79157 0.124424,-0.89578 0.07462,-1.79158 v -1.79157 -1.79157 -4.47894 -19.70729 -60.01765 -58.22609 -18.81151 -4.47893 -1.79157 -1.79157 l -0.07462,-1.79157 -0.124424,-0.89579 -0.174231,-0.89578 -0.24876,-0.89579 -0.622123,-1.79158 -0.398087,-0.89578 -0.398177,-0.89579 -1.045024,-1.79157 -0.647026,-0.89578 -1.318777,-1.79157 -0.671838,-0.8707 -0.746459,-0.84652 -1.592529,-1.51747 -0.821167,-0.69692 -0.771361,-0.74619 -0.746459,-0.77127 -0.696741,-0.84652 -1.51782,-1.76649 -0.84607,-0.89578 -0.870883,-0.89579 -1.7915723,-1.79157 -1.7915719,-1.79157 -1.766687,-1.79157 -0.8211401,-0.89579 -1.2441482,-1.79157 -0.5474237,-1.79158 -0.099531,-1.79157 v -0.89578 -0.89579 -2.68735 -59.12188 -18.811505 -5.374716 -1.791572 l 0.024885,-0.895786 0.074646,-0.895786 0.5474237,-1.791572 0.5474238,-0.895786 0.6967244,-0.895786 1.6920412,-1.791572 0.8957859,-0.895785 1.7915719,-1.791572 2.6873583,-2.6873583 0.895786,-0.895786 1.791571,-1.766696 0.895786,-0.8211311 1.791572,-1.2441392 0.895786,-0.3483891 m 45.685084,9.0325587 -1.791571,0.547415 -0.895786,0.323468 -1.791572,0.796265 -1.791572,1.069926 -0.895786,0.696743 -0.895786,0.746458 -1.766669,1.716953 -1.592529,1.791572 -0.696742,0.895786 -1.09483,1.791572 -0.422989,0.895786 -0.472797,0.895786 -0.696742,1.791572 -0.42299,1.791572 -0.348371,1.791572 -0.348371,1.791572 -0.124425,0.895786 v 1.791572 l 0.273752,1.791572 0.373274,1.791572 0.348282,1.791571 0.199133,0.895786 0.547415,1.791572 0.348371,0.895786 0.895786,1.791572 1.144546,1.791572 1.368581,1.766669 0.771362,0.84607 1.716953,1.492917 1.791572,1.244157 0.895786,0.547415 1.791572,0.895786 0.895786,0.348371 1.791572,0.547415 0.895785,0.17423 0.895786,0.124425 1.791572,0.07462 h 0.895786 0.895786 1.791572 1.791572 0.895786 l 1.791572,-0.07462 1.791572,-0.298655 0.895786,-0.24885 1.791572,-0.646936 1.791572,-0.895786 0.895786,-0.547415 1.791572,-1.244157 1.766669,-1.492917 1.592528,-1.716953 0.696743,-0.895786 1.094829,-1.791572 0.422811,-0.895786 0.472975,-0.895786 0.696921,-1.791572 0.223946,-0.895786 0.198865,-0.895786 0.34846,-1.791571 0.198864,-0.895786 0.27411,-1.791572 0.07435,-1.791572 -0.02508,-0.895786 -0.04927,-0.895786 -0.27411,-1.791572 -0.223946,-0.895786 -0.447893,-1.791572 -0.223946,-0.895786 -0.572407,-1.791572 -0.34846,-0.895786 -0.895517,-1.791572 -1.144546,-1.791572 -0.647026,-0.870883 -1.492917,-1.617431 -0.84607,-0.721556 -0.870883,-0.646936 -1.791572,-1.169539 -0.895786,-0.497698 -0.895786,-0.497609 -1.791572,-0.796265 -1.791572,-0.622033 -0.895786,-0.24885 -0.895786,-0.17423 -0.895786,-0.124425 -1.791572,-0.07462 h -0.895786 -1.791572 -1.791572 l -1.791572,0.07462 -1.791572,0.298655 m 359.210167,0 -0.89578,0.24885 -1.79157,0.622033 -1.79157,0.796265 -0.89579,0.497609 -0.89579,0.497698 -1.79157,1.169539 -0.8707,0.646936 -1.61779,1.492917 -1.36876,1.716953 -0.59659,0.895786 -0.57241,0.895786 -0.99522,1.791572 -0.74708,1.791572 -0.24814,0.895786 -0.27411,0.895786 -0.42282,1.791572 -0.27411,1.791572 -0.0493,0.895786 -0.0251,1.791572 0.0251,1.791572 0.0493,0.895786 0.27411,1.791572 0.22395,0.895785 0.19887,0.895786 0.52225,1.791572 0.722,1.791572 0.47297,0.895786 0.97014,1.791572 0.54732,0.895786 0.69692,0.895786 1.59271,1.716953 0.8707,0.771362 1.79157,1.368491 1.79158,1.144636 1.79157,0.895786 1.79157,0.646936 0.89579,0.24885 1.79157,0.298655 1.79158,0.07462 h 0.89578 0.89579 1.79157 1.79157 0.89578 l 1.79157,-0.07462 1.79158,-0.348371 0.89579,-0.348372 0.89578,-0.34837 0.89579,-0.472797 1.79157,-0.945502 0.89578,-0.497698 1.79157,-1.169539 0.87071,-0.646936 1.59271,-1.492917 0.69692,-0.84607 1.09465,-1.766669 0.42281,-0.895786 0.89579,-1.791572 0.47297,-0.895786 0.722,-1.791572 0.52225,-1.791572 0.19886,-0.895785 0.22395,-0.895786 0.27411,-1.791572 0.0493,-1.791572 -0.0493,-0.895786 -0.27411,-1.791572 -0.19887,-0.895786 -0.34846,-1.791572 -0.19886,-0.895786 -0.22395,-0.895786 -0.69692,-1.791572 -0.47297,-0.895786 -0.42281,-0.895786 -1.09465,-1.791572 -0.69692,-0.895786 -1.59271,-1.791572 -1.7665,-1.716953 -0.89578,-0.746458 -0.89579,-0.696743 -1.79157,-1.069926 -1.79157,-0.796265 -0.89578,-0.323468 -1.79157,-0.547415 -1.79158,-0.298655 -1.79157,-0.07462 h -0.89579 -1.79157 -1.79157 l -1.79158,0.07462 -1.79157,0.298655 m -356.522809,2.513128 1.791572,-0.174141 0.895786,-0.0249 1.791572,0.0249 0.895786,0.04972 1.791572,0.298655 0.895786,0.24885 1.791572,0.622033 0.895786,0.398088 0.895786,0.398176 0.895786,0.49761 0.895786,0.497698 1.766669,1.169539 0.84607,0.646936 1.492917,1.492917 0.647026,0.84607 1.144546,1.766669 0.472795,0.895786 0.422991,0.895786 0.348371,0.895786 0.572318,1.791572 0.223946,0.895786 0.447893,1.791572 0.223947,0.895786 0.199043,1.791572 -0.07462,0.895786 -0.124424,0.895786 -0.373275,1.791572 -0.373184,1.791571 -0.223946,0.895786 -0.696743,1.791572 -0.472796,0.895786 -0.970405,1.791572 -0.547414,0.895786 -1.443201,1.716953 -1.716953,1.492917 -0.895786,0.646936 -1.791572,1.144636 -0.895786,0.472796 -0.895786,0.42299 -1.791572,0.646936 -0.895786,0.24885 -0.895786,0.174231 -0.895786,0.124424 -1.791572,0.07462 H 69.871305 68.079733 L 66.288161,51.880967 65.392375,51.756543 64.496589,51.582312 62.705018,51.034897 61.809232,50.686526 60.01766,49.79074 59.121874,49.243325 58.226088,48.646104 57.355205,47.999168 55.737773,46.506251 54.369192,44.789298 53.772061,43.893512 53.224646,42.997726 52.32886,41.206154 51.980489,40.310368 51.681834,39.414582 51.433074,38.518796 51.0598,36.727225 50.736332,34.935653 50.587004,34.039867 v -1.791572 l 0.298655,-1.791572 0.373184,-1.791572 0.223947,-0.895786 0.696742,-1.791572 0.472796,-0.895786 0.42299,-0.895786 1.09483,-1.791572 0.696742,-0.895786 1.592529,-1.766669 1.766669,-1.592528 0.895786,-0.696743 0.895786,-0.547414 1.791572,-0.920689 0.895786,-0.398088 1.791571,-0.622033 0.895786,-0.24885 0.895786,-0.17423 m 359.210169,0 1.79158,-0.174141 0.89578,-0.0249 h 0.89579 l 1.79157,0.07462 1.79157,0.298655 0.89578,0.24885 1.79158,0.622033 0.89579,0.398088 1.79157,0.920689 0.89578,0.547414 0.89579,0.696743 1.76649,1.592528 1.5927,1.766669 0.69693,0.895786 1.09465,1.791572 0.42281,0.895786 0.47298,0.895786 0.69692,1.791572 0.22394,0.895786 0.37265,1.791572 0.17468,0.895786 0.27321,1.791572 -0.0994,1.791572 -0.19886,0.895786 -0.47298,1.791572 -0.24813,0.895785 -0.722,1.791572 -0.47298,0.895786 -0.39773,0.895786 -0.49805,0.895786 -0.42281,0.895786 -1.09466,1.716953 -0.69692,0.771362 -0.74619,0.721555 -0.84652,0.646936 -1.76649,1.169539 -0.89578,0.497698 -1.79157,0.945502 -0.89579,0.472797 -1.79158,0.696742 -0.89578,0.199044 -0.89579,0.149327 -1.79157,0.07462 h -0.89578 -1.79157 l -1.79158,-0.07462 -1.79157,-0.298655 -1.79157,-0.547415 -0.89579,-0.348371 -1.79157,-0.895786 -1.79157,-1.144636 -1.76649,-1.368491 -0.84652,-0.771362 -1.44311,-1.716953 -1.09465,-1.791572 -0.42281,-0.895786 -0.47298,-0.895786 -0.722,-1.791572 -0.24813,-0.895786 -0.47297,-1.791571 -0.22395,-0.895786 -0.27411,-1.791572 v -1.791572 l 0.12451,-0.895786 0.37355,-1.791572 0.47297,-1.791572 0.24813,-0.895786 0.74709,-1.791572 0.99521,-1.791572 1.169,-1.766669 0.64766,-0.84607 0.7211,-0.771361 1.6178,-1.368492 1.76649,-1.169539 0.89578,-0.497698 1.79157,-0.895786 0.89579,-0.398088 1.79157,-0.622033 0.89578,-0.24885 0.89579,-0.17423 M 144.22154,120.9311 l 1.34368,-0.0743 1.39384,-0.37354 1.74141,-0.82144 1.79157,-1.06956 0.89579,-0.49806 0.89578,-0.52224 0.89579,-0.42281 1.79157,-0.89579 0.89578,-0.49806 0.89579,-0.39772 0.89579,-0.49806 0.89579,-0.39773 0.89578,-0.49806 0.89579,-0.39772 0.89578,-0.49806 0.89579,-0.39773 1.79157,-0.89579 0.89578,-0.47298 0.89579,-0.37354 0.89579,-0.39773 1.79157,-0.69692 1.79157,-0.72111 0.89579,-0.37354 1.79157,-0.69692 0.89578,-0.37354 0.89579,-0.32338 0.89579,-0.34846 0.89579,-0.24813 1.79157,-0.49806 1.79157,-0.54732 1.79157,-0.59749 1.79157,-0.5966 0.89579,-0.29919 0.89579,-0.29829 1.79157,-0.52225 0.89578,-0.19976 1.79157,-0.34757 1.79157,-0.37354 1.79158,-0.2983 0.89579,-0.10033 1.79157,-0.29829 0.89578,-0.19887 0.89579,-0.17468 1.79157,-0.34756 0.89578,-0.17468 0.89579,-0.19886 1.79158,-0.27411 1.79157,-0.1487 0.89578,-0.12452 1.79157,-0.348458 1.79157,-0.274111 0.89579,-0.04927 0.89579,-0.02508 h 1.79157 5.37471 4.47894 1.79157 l 0.89578,0.02508 0.89579,0.04927 1.79157,0.274111 1.79158,0.348458 0.89578,0.12452 1.79157,0.1487 1.79157,0.27411 0.89579,0.22394 1.79157,0.4479 0.89579,0.19886 1.79157,0.44789 0.89579,0.24903 0.89578,0.19886 0.89579,0.24903 0.89578,0.19887 0.89579,0.24903 0.89578,0.22395 1.79158,0.57241 1.79157,0.7211 0.89579,0.37355 0.89578,0.47297 1.79157,0.89579 0.89579,0.42281 0.89578,0.52224 1.79158,1.04538 0.89578,0.54733 0.89579,0.52224 1.79157,1.14481 0.89578,0.69692 1.79157,1.59272 1.79158,1.76649 1.71722,1.79157 0.77128,0.89578 0.7211,0.89579 c 0.64676,0.87876 1.27023,1.77365 1.86682,2.68735 l 1.11973,1.79158 0.91997,1.79157 0.37354,0.89579 0.39863,0.89578 0.7211,1.79157 0.62258,1.79157 0.27322,0.89579 0.22394,0.89579 0.4479,1.79157 0.24903,0.89578 0.19886,0.89579 0.44789,1.79157 0.22395,0.89578 0.27411,1.79158 0.0493,0.89579 0.0251,1.79157 v 0.89578 1.79157 2.68736 0.89579 l -0.0251,1.79157 -0.0493,0.89579 -0.27411,1.79157 -0.22395,0.89578 -0.44789,1.79157 -0.19886,0.89579 -0.24903,0.89579 -0.19887,0.89579 -0.24903,0.89578 -0.22394,0.89579 -0.57242,1.79157 -0.7211,1.79157 -0.37355,0.89578 -0.47297,0.89579 -0.89579,1.79158 -0.42281,0.89578 -1.06956,1.79157 -0.64766,0.89579 -1.31859,1.79157 -0.67184,0.89578 -1.51746,1.79158 -1.71723,1.79157 -0.89579,0.87071 -0.89578,0.84651 -1.79157,1.51746 -1.79157,1.36876 -0.89579,0.62168 -0.89578,0.64765 -0.89579,0.54733 -1.79157,1.09465 -1.79157,1.06957 -1.79157,0.89579 -0.89579,0.34846 -1.79157,0.62257 -0.89579,0.32337 -0.89579,0.32338 -1.79157,0.77127 -0.89578,0.4479 -1.79157,0.69692 -0.89579,0.22394 -1.79157,0.37265 -0.89579,0.17468 -1.79157,0.42281 -0.89579,0.24903 -1.79157,0.44789 -0.89578,0.19886 -0.89579,0.24904 -1.79157,0.42281 -0.89579,0.17468 -1.79157,0.34756 -0.89579,0.17468 -1.79157,0.34846 -0.89578,0.12452 -1.79157,0.0994 -0.89579,0.0493 -0.89579,0.12451 -1.79157,0.34846 -1.79157,0.27411 -0.89579,0.0493 -1.79157,0.0251 h -0.89578 -2.68737 -10.74943 -19.70729 -2.68735 l -1.79158,0.0251 -1.76649,0.27322 -0.82143,0.34846 -0.69693,0.54732 -0.54732,0.69692 -0.54732,1.69214 -0.0994,1.79157 v 0.89579 0.89579 2.68736 7.16629 42.99772 l 0.89579,0.89579 h 28.66515 11.64522 2.68736 1.79157 l 1.79157,0.0251 0.89578,0.0493 1.79158,0.27411 0.89579,0.19886 1.79157,0.27411 0.89578,0.0493 1.79157,0.0251 0.89579,0.0251 0.89578,0.0493 1.79158,0.27411 0.89579,0.19887 0.89578,0.17468 1.79157,0.34756 0.89579,0.17468 1.79157,0.37354 1.79157,0.34757 0.89579,0.17468 1.79157,0.42281 0.89579,0.24902 0.89578,0.19887 1.79157,0.44789 0.89579,0.24903 1.79157,0.44789 0.89579,0.19887 0.89578,0.27411 0.89579,0.24813 0.89579,0.37354 0.89578,0.34846 0.89579,0.44789 1.79157,0.77127 0.89578,0.32338 0.89579,0.32339 1.79157,0.62257 0.89579,0.32338 1.79157,0.79635 1.79157,0.99522 1.79157,1.09465 1.79158,1.0203 0.89578,0.44789 1.79157,1.09465 0.89579,0.67184 0.89578,0.69692 1.79157,1.44312 0.89579,0.69692 1.79158,1.51746 1.79157,1.71722 0.8707,0.89578 0.84652,0.89579 1.51746,1.79157 0.69692,0.89578 1.44311,1.79158 0.69692,0.89579 0.67185,0.89578 1.09465,1.79157 0.42281,0.89579 0.89578,1.79157 0.47298,0.89578 0.77127,1.79158 0.64676,1.79157 0.29919,0.89579 0.29829,0.89578 0.52225,1.79157 0.19976,0.89579 0.34756,1.79158 0.17468,0.89578 0.19886,0.89579 0.27411,1.79157 0.0493,0.89578 0.0502,1.79157 0.0251,0.89579 0.0994,1.79158 0.0493,0.89578 -0.0493,0.89579 -0.0994,1.79157 -0.0502,1.79157 -0.0251,1.79157 -0.0493,0.89578 -0.27411,1.79158 -0.19886,0.89579 -0.34846,1.79157 -0.34846,1.79157 -0.42281,1.79157 -0.27411,0.89578 -0.24813,0.8958 -0.72201,1.79157 -0.44789,0.89578 -0.77127,1.79157 -0.69692,1.79157 -0.39773,0.89579 -0.39862,0.89578 -1.04449,1.79158 -1.26934,1.79157 -0.67184,0.89579 -0.62257,0.89578 -1.24335,1.79157 -0.64765,0.89579 -1.49238,1.79158 -1.71722,1.71722 -1.79157,1.51746 -0.89579,0.67183 -1.79157,1.3186 -0.89579,0.64765 -0.89578,0.54733 -1.79157,1.14392 -0.89579,0.64766 -0.89578,0.59659 -0.89579,0.64765 -1.79158,1.04449 -0.89578,0.39862 -0.89579,0.39773 -1.79157,0.69692 -1.79157,0.77127 -0.89578,0.44789 -1.79158,0.77128 -1.79157,0.64675 -1.79157,0.59749 -0.89578,0.27411 -0.89579,0.27322 -0.89579,0.22394 -1.79157,0.47298 -0.89579,0.27321 -1.79157,0.54823 -0.89578,0.24813 -1.79157,0.32338 -0.89579,0.10033 -0.89578,0.1487 -1.79157,0.34846 -1.79158,0.27411 -0.89579,0.0493 -1.79157,0.0994 -1.79157,0.27411 -0.89578,0.19887 -1.79157,0.27411 -0.8958,0.0493 -0.89578,0.0251 h -1.79157 -6.27051 -6.27049 -1.79157 l -1.79158,-0.0251 -0.89579,-0.0493 -1.79157,-0.27411 -0.89578,-0.19887 -1.79157,-0.27411 -0.89579,-0.0493 -1.79158,-0.0502 -0.89578,-0.0493 -1.79157,-0.27411 -0.89579,-0.19886 -1.79157,-0.27411 -0.89578,-0.0493 -1.79157,-0.0994 -0.8958,-0.12452 -1.79157,-0.37354 -0.89578,-0.19887 -0.89579,-0.24903 -1.79157,-0.4479 -0.89578,-0.19886 -0.89579,-0.24903 -1.79158,-0.42281 -0.89578,-0.17468 -1.79157,-0.34756 -0.89579,-0.17468 -1.79157,-0.42281 -0.89578,-0.24903 -0.89579,-0.22394 -1.79158,-0.54733 -1.79157,-0.59749 -2.68735,-0.89578 -2.68736,-0.89579 -1.79158,-0.59659 -1.79157,-0.62257 -0.89578,-0.32338 -1.79157,-0.77127 -0.89579,-0.44789 -1.79157,-0.77128 -1.79158,-0.69692 -0.89578,-0.39773 -0.89579,-0.37354 -1.79157,-0.87071 -0.89578,-0.49805 -0.89579,-0.39773 -0.89578,-0.49806 -0.89579,-0.39773 -0.89578,-0.49805 -0.8958,-0.39773 -0.89578,-0.49806 -0.89579,-0.42281 -1.79157,-1.0203 -1.79157,-1.09465 -1.79157,-1.07047 -0.89578,-0.52224 -0.8958,-0.57241 -1.79157,-1.169 -1.79157,-1.11973 -1.7414,-0.82144 -1.39384,-0.37354 -1.34368,-0.0743 -0.64677,1.34368 -0.0251,0.49806 -0.17378,0.89578 -0.0251,0.84562 -0.0251,0.89579 v 0.89578 2.68737 8.95786 34.03986 7.16628 2.68737 0.89578 1.79157 l 0.0251,0.89579 0.0744,0.89578 0.54732,1.71722 0.54734,0.74619 1.51835,1.24426 1.76649,0.92086 0.89578,0.39773 1.79157,0.69692 0.89579,0.39773 0.89578,0.37354 0.8958,0.47298 0.89578,0.39773 0.89579,0.47297 1.79157,0.77127 0.89578,0.32338 1.79157,0.57241 0.89579,0.22394 1.79158,0.52225 0.89578,0.34846 0.89579,0.32338 1.79157,0.69692 1.79157,0.57241 1.79157,0.47298 0.89578,0.19886 0.8958,0.24903 0.89578,0.19886 0.89579,0.24903 1.79157,0.44789 0.89578,0.19887 1.79157,0.47297 0.89579,0.27322 1.79158,0.54822 1.79157,0.44789 0.89578,0.17378 1.79157,0.34846 0.89579,0.19887 1.79157,0.27411 1.79158,0.1487 0.89578,0.12451 1.79157,0.34846 1.79157,0.2983 1.79157,0.24903 1.79157,0.34846 1.79158,0.29829 0.89579,0.10033 1.79157,0.2983 0.89578,0.19886 1.79157,0.27411 0.89579,0.0493 1.79158,0.0251 h 1.79157 l 0.89578,0.0251 0.89579,0.0493 1.79157,0.27411 0.89578,0.19887 1.79157,0.27411 0.8958,0.0493 0.89578,0.0251 h 1.79157 5.37471 15.22837 12.54101 4.47892 0.89579 l 1.79157,-0.0251 0.89578,-0.0493 1.79158,-0.27411 0.89578,-0.19887 1.79158,-0.27411 0.89578,-0.0493 0.89579,-0.0251 1.79157,-0.0251 0.89578,-0.0493 1.79158,-0.27411 0.89578,-0.19886 0.89579,-0.17468 1.79157,-0.34756 0.89578,-0.17468 0.89579,-0.19887 0.89578,-0.17467 1.79158,-0.34757 1.79157,-0.37354 1.79157,-0.2983 0.89579,-0.10033 1.79157,-0.29829 1.79157,-0.37354 1.79158,-0.34757 0.89578,-0.19976 0.89579,-0.24813 1.79157,-0.54822 0.89578,-0.27322 1.79157,-0.47297 0.89579,-0.19887 0.89579,-0.24902 0.89579,-0.19887 0.89578,-0.24903 1.79157,-0.44789 0.89579,-0.19886 1.79157,-0.52225 0.89578,-0.34846 0.89579,-0.32338 0.89579,-0.37355 1.79157,-0.64675 0.89579,-0.29919 1.79157,-0.5966 0.89578,-0.29919 0.89579,-0.32338 0.89578,-0.32338 1.79158,-0.77127 0.89579,-0.47297 0.89578,-0.39773 0.89579,-0.47298 1.79157,-0.77127 1.79157,-0.69692 1.79157,-0.77127 0.89579,-0.47297 0.89579,-0.39773 0.89578,-0.49806 0.89579,-0.42282 0.89578,-0.52224 0.89579,-0.49806 1.79157,-1.09465 1.79157,-1.07046 0.89579,-0.52224 1.79157,-1.14481 0.89579,-0.5966 1.79157,-1.19497 1.79157,-1.19409 0.89578,-0.62167 0.89579,-0.62258 1.79158,-1.3186 0.89578,-0.69692 0.89579,-0.64675 0.89578,-0.69692 0.89579,-0.64676 0.89578,-0.69692 1.79157,-1.41803 0.89579,-0.77127 1.79158,-1.71722 0.89578,-0.89579 1.79157,-1.79158 1.79157,-1.79157 1.76649,-1.79157 0.84652,-0.89578 1.51747,-1.79157 0.69692,-0.89579 0.7211,-0.89579 1.44401,-1.79157 0.69602,-0.89578 1.26933,-1.79157 0.59749,-0.89579 1.19408,-1.79157 1.19408,-1.79158 0.57241,-0.89578 0.57242,-0.89579 1.02029,-1.79157 0.42281,-0.89578 0.49806,-0.89579 0.39773,-0.89578 0.49806,-0.89579 0.39773,-0.89579 0.89578,-1.79157 0.47297,-0.89579 0.37355,-0.89578 0.39773,-0.89579 0.69692,-1.79157 0.7211,-1.79157 0.37355,-0.89579 0.64675,-1.79157 0.29919,-0.89579 0.59661,-1.79157 0.59749,-1.79157 0.27411,-0.89578 0.24813,-0.89579 0.37354,-1.79158 0.34846,-1.79157 0.19887,-0.89578 0.17467,-0.89579 0.34757,-1.79157 0.17468,-0.89578 0.19886,-0.89579 0.2983,-1.79158 0.24902,-1.79157 0.34847,-1.79157 0.29829,-1.79157 0.10033,-0.89578 0.2983,-1.79158 0.19886,-0.89579 0.27411,-1.79157 0.0493,-0.89578 0.0251,-1.79157 v -0.89579 -1.79157 -8.95786 -4.47893 -1.79157 l -0.0251,-0.89579 -0.0493,-0.89578 -0.27411,-1.79158 -0.22395,-0.89579 -0.19886,-0.89578 -0.24903,-0.89579 -0.42281,-1.79157 -0.17468,-0.89578 -0.17378,-0.89579 -0.34846,-1.79157 -0.19886,-0.89579 -0.34846,-1.79157 -0.34846,-1.79157 -0.42282,-1.79157 -0.27411,-0.89579 -0.24813,-0.89578 -0.34846,-0.89579 -0.32338,-0.89579 -0.37354,-0.89579 -0.69693,-1.79157 -0.37354,-0.89578 -0.72111,-1.79157 -0.69692,-1.79157 -0.79635,-1.79158 -0.49716,-0.89579 -0.49806,-0.89578 -1.09465,-1.79157 -1.0203,-1.79157 -0.44789,-0.89579 -1.06957,-1.79157 -0.64765,-0.89579 -0.62168,-0.89579 -0.69693,-0.89578 -1.34367,-1.79157 -0.64676,-0.89579 -1.36876,-1.79157 -1.51746,-1.79157 -0.84652,-0.89579 -0.8707,-0.89578 -1.71722,-1.79157 -0.77128,-0.87071 -0.74619,-0.84651 -1.44311,-1.51746 -1.61779,-1.44311 -0.8707,-0.7471 -0.89578,-0.79546 -1.79157,-1.49327 -0.89579,-0.67184 -1.79158,-1.34368 -1.79157,-1.34367 -0.89578,-0.69692 -0.89579,-0.62168 -0.89578,-0.64765 -1.79157,-1.06957 -0.89579,-0.4479 -1.79158,-1.0203 -1.79157,-1.09465 -1.79157,-1.0203 -0.89578,-0.42281 -0.89579,-0.47297 -0.89578,-0.37355 -0.89579,-0.39772 -1.79158,-0.69692 -1.79157,-0.77128 -0.89578,-0.44789 -1.79157,-0.77127 -0.89579,-0.32338 -0.89578,-0.32338 -1.79158,-0.59748 -1.79157,-0.5975 -0.89579,-0.2983 -0.89578,-0.27411 -0.89579,-0.27321 -0.89578,-0.22395 -1.79157,-0.44789 -0.89579,-0.24903 -0.89579,-0.19886 -1.79157,-0.4479 -0.89579,-0.22394 -1.79157,-0.2983 -0.89578,-0.10033 -1.79157,-0.29829 -0.89579,-0.19887 -1.79158,-0.29829 -0.89578,-0.10033 -1.79157,-0.2983 -1.74141,-0.34846 -0.49805,-0.12451 -1.34368,-0.0743 1.84173,-1.09465 0.89579,-0.49806 1.7414,-0.69692 1.79157,-0.52224 0.89579,-0.22395 1.79158,-0.54732 1.79157,-0.5975 0.89578,-0.32338 0.89579,-0.32338 1.79157,-0.72111 0.89578,-0.37354 1.79158,-0.64675 0.89579,-0.2992 1.79157,-0.64675 1.79157,-0.77127 0.89578,-0.47298 1.79157,-0.89578 0.89579,-0.39773 0.89579,-0.49806 0.89579,-0.39773 0.89578,-0.49805 0.89579,-0.42281 1.79157,-1.02031 0.89578,-0.57241 1.79157,-1.169 1.79158,-1.19498 0.89579,-0.59659 1.79157,-1.21916 0.89578,-0.62257 1.79157,-1.3186 0.89579,-0.69692 1.79157,-1.41804 0.89579,-0.77127 1.79157,-1.71722 0.89579,-0.89578 1.79157,-1.79157 1.76649,-1.79157 0.84651,-0.89579 1.51746,-1.79158 0.69693,-0.89578 0.72111,-0.89579 1.41892,-1.79157 0.67184,-0.89578 0.57241,-0.89579 1.09465,-1.79157 1.09465,-1.79158 0.49805,-0.89578 0.52225,-0.89579 0.92086,-1.79157 0.39773,-0.89578 0.49806,-0.89579 0.39774,-0.89578 0.89578,-1.79157 0.47297,-0.8958 0.77128,-1.79157 0.69692,-1.79157 0.7211,-1.79157 0.69692,-1.79157 0.57241,-1.79158 0.47298,-1.79157 0.22394,-0.89578 0.27322,-0.89579 0.54822,-1.79157 0.27321,-0.89578 0.47298,-1.79157 0.19886,-0.8958 0.22395,-0.89578 0.27411,-1.79157 0.1487,-1.79157 0.12451,-0.89579 0.34846,-1.79157 0.27411,-1.79158 0.0493,-0.89578 0.0251,-1.79157 v -1.79157 -2.68736 -1.79158 l 0.0744,-1.79157 0.12452,-0.89578 0.34846,-1.79157 0.27411,-1.79157 0.0493,-0.89579 -0.0493,-1.79157 -0.27411,-1.79157 -0.19887,-0.89579 -0.27411,-1.79157 -0.0744,-1.79157 v -1.79157 -0.89579 l -0.0251,-1.79157 -0.0493,-0.89579 -0.27411,-1.79157 -0.34846,-1.79157 -0.12451,-0.89578 -0.1487,-1.79158 -0.2992,-1.79157 -0.24813,-0.89579 -0.5724,-1.79157 -0.59749,-1.79157 -0.27411,-0.89578 -0.27322,-0.89579 -0.22394,-0.89579 -0.24903,-0.89579 -0.22395,-0.89578 -0.57241,-1.791574 -0.7211,-1.79157 -0.37355,-0.895785 -0.47297,-0.895785 -0.8707,-1.791579 -0.37355,-0.895785 -0.42281,-0.895785 -0.37354,-0.895785 -0.91998,-1.791571 -1.11973,-1.791572 -0.59749,-0.895786 -1.19408,-1.791572 -1.19498,-1.791572 -0.59659,-0.895786 -0.59749,-0.895786 -1.26933,-1.791572 -0.7211,-0.895786 -0.77127,-0.895786 -1.64288,-1.791572 -0.77127,-0.870883 -1.44311,-1.617431 -0.74619,-0.746459 -0.77127,-0.696742 -1.71722,-1.51782 -0.89579,-0.84607 -1.79157,-1.69205 -1.79158,-1.51782 -0.89578,-0.671839 -0.89579,-0.696742 -1.79157,-1.318777 -0.89578,-0.622033 -0.89579,-0.622123 -1.79157,-1.194352 -1.79158,-1.194441 -0.89578,-0.59713 -0.89579,-0.572318 -0.89578,-0.572318 -1.79157,-1.020211 -0.89579,-0.42299 -0.89578,-0.497699 -0.89579,-0.398087 -0.89579,-0.497699 -0.89579,-0.398087 -0.89578,-0.497699 -1.79157,-0.895786 -0.89579,-0.398087 -0.89578,-0.497699 -0.89579,-0.398086 -0.89578,-0.472797 -1.79158,-0.771361 -0.89579,-0.323468 -0.89578,-0.323468 -0.89579,-0.298656 -1.79157,-0.59713 -0.89578,-0.298656 -0.89579,-0.323468 -0.89578,-0.323468 -1.79158,-0.721645 -0.89579,-0.373185 -1.79157,-0.622033 -1.79157,-0.497699 -0.89578,-0.248849 -0.89579,-0.199044 -0.89578,-0.24885 -0.89579,-0.199043 -1.79158,-0.447893 -0.89578,-0.24885 -1.79157,-0.447892 -0.89579,-0.199044 -0.89578,-0.24885 -0.89579,-0.199043 -1.79157,-0.447893 -0.89579,-0.223947 -1.79157,-0.298655 -0.89579,-0.09943 -1.79157,-0.298654 -0.89578,-0.199045 -1.79157,-0.298655 -0.89579,-0.09943 -1.79158,-0.298654 -0.89578,-0.199045 -1.79157,-0.273752 -0.89579,-0.04972 -1.79157,-0.0249 -1.79157,-0.0249 -0.89579,-0.04972 -1.79157,-0.273752 -0.89578,-0.199045 -1.79157,-0.273752 -0.89579,-0.04972 -1.79157,-0.0249 h -0.89579 -3.58314 -10.74943 -8.06208 -1.79157 -0.89578 l -1.79158,0.0249 -0.89579,0.04972 -1.79157,0.273752 -0.89578,0.199045 -1.79157,0.273752 -0.89579,0.04972 -1.79157,0.0249 h -1.79158 -0.89578 l -0.89579,0.0249 -0.89578,0.04972 -1.79157,0.273752 -0.89579,0.199045 -1.79157,0.273751 -1.79158,0.09952 -0.89578,0.04972 -1.79157,0.273752 -0.89579,0.199045 -1.79157,0.273751 -1.79157,0.149238 -1.79158,0.273752 -0.89578,0.223947 -1.79157,0.447893 -1.79157,0.447893 -0.89579,0.199044 -0.89578,0.248849 -1.79158,0.42299 -0.89579,0.174141 -1.79157,0.34846 -1.79157,0.373185 -0.89578,0.174141 -1.79157,0.34846 -0.89579,0.199044 -0.89579,0.24885 -1.79157,0.622033 -1.79157,0.696743 -0.89579,0.348282 -1.79157,0.522601 -0.89578,0.223946 -1.79158,0.547415 -1.79157,0.597221 -1.79157,0.59713 -1.79157,0.622124 -0.89579,0.323468 -0.89578,0.373185 -1.79158,0.721645 -1.79157,0.696742 -1.79157,0.771361 -0.89579,0.447894 -1.79157,0.771361 -1.79157,0.696742 -1.79158,0.796264 -0.8707,0.522512 -1.51835,1.244157 -0.54733,0.746459 -0.54732,1.716953 -0.0994,1.791572 v 0.895785 0.895786 2.687358 7.166288 30.456729 8.95786 1.79157 0.89579 l 0.0251,0.89578 0.0251,0.84562 0.17378,0.89579 0.0251,0.49805 0.64676,1.34368 m 135.26368,99.43225 0.0994,1.34368 0.54733,1.36876 1.24424,1.49238 1.69215,1.07046 1.79157,0.62167 1.79157,0.32338 1.79157,0.24903 0.89578,0.1496 1.79157,0.34846 1.79158,0.24903 0.89579,0.1487 0.89578,0.14959 1.79157,0.42281 0.89579,0.24904 0.89578,0.19886 0.89579,0.24903 1.79158,0.44789 0.89578,0.22395 0.89579,0.27322 0.89578,0.27411 0.89579,0.29829 1.79157,0.59749 1.79157,0.59749 0.89578,0.32338 0.8958,0.32338 1.79157,0.77127 0.89578,0.44789 1.79157,0.77127 1.79157,0.69692 0.89579,0.39773 0.89578,0.37354 0.8958,0.47298 0.89578,0.42281 1.79157,1.02031 1.79157,1.09464 1.79157,1.0203 0.89579,0.4479 1.79158,1.06956 0.89578,0.64766 0.89579,0.62167 0.89578,0.69692 1.79157,1.34368 0.89579,0.64676 1.79157,1.36877 1.79158,1.49327 1.71722,1.54254 0.77127,0.74619 0.74619,0.69692 0.69692,0.74619 1.51746,1.61779 0.84651,0.8707 1.74141,1.79158 0.84653,0.89578 1.51746,1.79157 1.36876,1.79157 0.64675,0.89579 1.34368,1.79157 0.69692,0.89579 0.62168,0.89579 0.64765,0.89578 1.06957,1.79157 0.4479,0.89579 1.0203,1.79157 1.09465,1.79157 0.49805,0.89578 0.49716,0.8958 0.39863,0.89578 0.74619,1.79157 0.34846,0.89579 0.7211,1.79157 0.37355,0.89578 0.69692,1.79157 0.37354,0.8958 0.67184,1.79157 0.52224,1.79157 0.19886,0.89578 0.22395,0.89579 0.34847,1.79157 0.34846,1.79158 0.37354,1.79157 0.34757,1.79157 0.17468,0.89578 0.42281,1.79157 0.24902,0.89579 0.19887,0.89578 0.22395,0.8958 0.27411,1.79157 0.0743,1.79157 v 1.79157 1.79157 2.68736 6.2705 1.79158 l -0.0251,1.79157 -0.0493,0.89578 -0.27411,1.79157 -0.19887,0.89579 -0.2983,1.79157 -0.10032,0.89578 -0.2983,1.79158 -0.19886,0.89579 -0.2983,1.79157 -0.10033,0.89578 -0.2983,1.79157 -0.19886,0.89579 -0.17468,0.89578 -0.34757,1.79158 -0.17468,0.89579 -0.19886,0.89578 -0.34846,1.79157 -0.37355,1.79157 -0.24813,0.89579 -0.27411,0.89578 -0.59749,1.79158 -0.59659,1.79157 -0.29919,0.89579 -0.32338,0.89578 -0.32338,0.89579 -0.37354,0.89578 -0.72111,1.79157 -0.69692,1.79158 -0.39773,0.89579 -0.37354,0.89578 -0.47298,0.89579 -0.89578,1.79157 -0.39773,0.89578 -0.49806,0.89579 -0.39773,0.89578 -0.49806,0.8958 -0.42281,0.89578 -1.0203,1.79157 -0.57241,0.89579 -0.5724,0.89578 -1.19408,1.79157 -1.19409,1.79157 -0.59748,0.89579 -1.26933,1.79158 -0.69603,0.89578 -1.44401,1.79157 -0.72111,0.89579 -0.69692,0.89578 -1.51746,1.79157 -0.84652,0.89579 -1.76648,1.79157 -1.79157,1.79157 -1.79158,1.79157 -0.89579,0.87071 -0.89578,0.84651 -1.79157,1.51747 -0.89579,0.67184 -1.79157,1.34368 -0.89578,0.69692 -0.89579,0.64676 -1.79158,1.34368 -0.89578,0.67183 -1.79157,1.24425 -0.89579,0.59749 -1.79157,1.19408 -1.79157,1.19409 -1.79158,1.14481 -0.89578,0.52225 -1.79157,1.07046 -0.89579,0.54732 -1.79157,1.04539 -0.89578,0.52224 -0.89579,0.42281 -1.79158,0.89578 -0.89578,0.47298 -0.89579,0.37354 -0.89578,0.39773 -1.79157,0.69693 -0.89579,0.39773 -0.89578,0.37354 -0.8958,0.47297 -0.89578,0.39773 -0.89579,0.47298 -1.79157,0.77127 -0.89578,0.32338 -0.89579,0.32338 -0.89578,0.29919 -1.79157,0.59659 -0.89579,0.29919 -1.79158,0.64676 -0.89578,0.37354 -0.89579,0.32338 -0.89578,0.34846 -1.79157,0.52224 -0.89579,0.19887 -1.79157,0.44789 -0.89579,0.24903 -0.89579,0.19886 -0.89578,0.24903 -0.89579,0.19887 -1.79157,0.47298 -0.89578,0.27321 -1.79157,0.54822 -0.89579,0.24814 -0.89579,0.19976 -1.79157,0.34756 -1.79157,0.37354 -1.79157,0.2983 -0.89579,0.10033 -1.79157,0.29829 -1.79158,0.37355 -1.79157,0.34756 -0.89578,0.17468 -0.89579,0.19886 -0.89578,0.17468 -1.79157,0.34757 -0.89579,0.17467 -1.79157,0.34846 -0.89579,0.12452 -1.79157,0.0743 h -0.89578 l -1.79158,0.0743 -1.79157,0.27411 -0.89579,0.19886 -1.79157,0.27411 -0.89578,0.0493 -1.79157,0.0251 h -1.79157 -2.68737 -12.541 -13.43678 -4.47894 -1.79157 l -0.89578,-0.0251 -0.89579,-0.0493 -1.79158,-0.27411 -0.89578,-0.19886 -1.79157,-0.27411 -0.89579,-0.0493 -1.79157,-0.0251 h -1.79157 l -0.89578,-0.0251 -0.8958,-0.0493 -1.79157,-0.27411 -0.89578,-0.19887 -1.79157,-0.29829 -0.89579,-0.10033 -1.79157,-0.2983 -0.89578,-0.19886 -1.79158,-0.2983 -0.89579,-0.10033 -1.79157,-0.29829 -0.89578,-0.19887 -1.79157,-0.27411 -1.79157,-0.1487 -1.79158,-0.27411 -0.89579,-0.19886 -1.79157,-0.34846 -0.89578,-0.17378 -0.89579,-0.19976 -0.89578,-0.24814 -1.79157,-0.54822 -0.8958,-0.27321 -1.79157,-0.47298 -0.89578,-0.19887 -1.79157,-0.44789 -0.89579,-0.24903 -0.89578,-0.19886 -0.89579,-0.24903 -0.89578,-0.19887 -0.8958,-0.24903 -1.79157,-0.49716 -1.79157,-0.62257 -0.89578,-0.37354 -0.89579,-0.32338 -0.89578,-0.34846 -0.89579,-0.24813 -0.89578,-0.27411 -0.8958,-0.22395 -1.79157,-0.5724 -1.79157,-0.72111 -0.89578,-0.37354 -1.79157,-0.87071 -0.89579,-0.47297 -0.89578,-0.37354 -0.8958,-0.39773 -1.79157,-0.69693 -0.89578,-0.39773 -0.84562,-0.34846 -1.39384,-0.69692 -1.34368,-0.89579 V 343.0861 l 1.34368,0.62168 0.49805,0.34846 0.89579,0.54732 1.7414,1.14482 0.89579,0.57241 0.89578,0.52224 1.79158,1.07047 1.79157,1.09465 0.89579,0.49805 0.89578,0.52225 0.89579,0.42281 1.79157,0.89578 0.89578,0.49806 0.89579,0.39773 0.89579,0.49805 0.89579,0.39773 0.89578,0.49806 1.79157,0.87071 0.89579,0.37354 0.89578,0.39773 1.79157,0.69692 1.79158,0.77127 0.89579,0.44789 1.79157,0.77128 0.89578,0.32337 1.79157,0.62257 1.79157,0.5966 2.68737,0.89578 2.68735,0.89579 1.79157,0.59749 1.79157,0.54732 0.89579,0.22395 0.89579,0.24903 1.79157,0.42281 0.89579,0.17468 1.79157,0.34757 0.89578,0.17468 1.79157,0.42281 0.89579,0.24902 0.89579,0.19887 1.79157,0.44789 0.89579,0.24903 0.89578,0.19886 1.79157,0.37355 0.89579,0.12451 1.79157,0.0994 0.89579,0.0493 1.79157,0.27411 0.89579,0.19887 1.79157,0.27411 0.89578,0.0493 1.79157,0.0502 0.89579,0.0493 1.79158,0.27411 0.89578,0.19886 1.79157,0.27411 0.89579,0.0493 1.79157,0.0251 h 1.79157 8.06207 7.16629 1.79157 l 1.79158,-0.0251 0.89579,-0.0493 1.79157,-0.27411 0.89578,-0.19886 1.79157,-0.27411 1.79157,-0.0994 0.89579,-0.0493 1.79158,-0.27411 1.79157,-0.34847 0.89578,-0.1487 0.89579,-0.10032 1.79157,-0.32338 0.89578,-0.24813 1.79158,-0.54822 0.89578,-0.27322 1.79158,-0.47297 0.89578,-0.22395 0.89579,-0.27321 0.89578,-0.27411 1.79157,-0.59749 0.89579,-0.32339 0.89579,-0.32338 1.79157,-0.77127 0.89578,-0.44789 1.79157,-0.77127 1.79157,-0.69692 0.89579,-0.39773 0.89579,-0.39863 1.79157,-1.04448 0.89579,-0.64766 0.89578,-0.59659 0.89579,-0.64765 1.79157,-1.14392 0.89578,-0.54732 1.79157,-1.26934 0.8958,-0.69692 0.89578,-0.67184 1.79157,-1.51746 1.76649,-1.71722 0.84652,-0.89578 1.49238,-1.79157 0.64765,-0.8958 1.24336,-1.79157 0.62257,-0.89578 0.67184,-0.89579 1.26933,-1.79157 1.04448,-1.79157 0.39862,-0.89578 0.39773,-0.8958 0.69692,-1.79157 0.77128,-1.79157 0.44789,-0.89578 0.722,-1.79157 0.24813,-0.89579 0.27411,-0.89578 0.42281,-1.79158 0.34846,-1.79157 0.34847,-1.79157 0.19887,-0.89579 0.27411,-1.79157 0.0493,-0.89578 0.0251,-0.8958 0.0251,-1.79157 0.0493,-0.89578 0.27411,-1.79157 0.19886,-0.89579 0.19887,-1.79157 -0.19887,-1.79158 -0.19886,-0.89578 -0.27411,-1.79157 -0.0493,-0.89579 -0.0502,-1.79157 -0.17379,-1.79157 -0.34846,-1.79158 -0.17467,-0.89578 -0.34758,-1.79157 -0.19976,-0.89579 -0.52224,-1.79157 -0.2983,-0.89578 -0.29919,-0.89579 -0.64676,-1.79158 -0.77127,-1.79157 -0.47297,-0.89578 -0.89579,-1.79157 -0.42281,-0.89579 -1.09465,-1.79157 -0.67184,-0.89578 -0.69692,-0.8958 -1.44311,-1.79157 -0.69693,-0.89578 -1.51746,-1.79157 -1.71722,-1.79157 -0.89578,-0.89579 -1.79157,-1.71722 -1.79157,-1.51746 -0.8958,-0.69693 -1.79157,-1.44311 -0.89578,-0.69692 -0.89579,-0.67184 -1.79157,-1.09464 -0.89578,-0.4479 -1.79157,-1.0203 -1.79158,-1.09465 -0.89579,-0.49806 -0.89578,-0.49716 -0.89579,-0.39863 -0.89578,-0.39772 -1.79157,-0.64676 -1.79157,-0.62257 -0.89579,-0.32338 -1.79157,-0.77127 -0.89579,-0.44789 -0.89578,-0.34846 -0.89579,-0.37355 -0.89578,-0.24813 -1.79158,-0.47297 -1.79157,-0.4479 -0.89579,-0.24902 -0.89578,-0.19887 -0.89579,-0.24903 -0.89578,-0.19886 -0.89579,-0.24903 -1.79157,-0.42281 -0.89578,-0.17468 -1.79158,-0.34756 -0.89579,-0.17468 -0.89578,-0.19887 -1.79157,-0.34846 -1.79157,-0.34846 -0.89579,-0.19887 -1.79157,-0.27411 -0.89579,-0.0493 -0.89579,-0.0251 -1.79157,-0.0251 -0.89578,-0.0493 -1.79157,-0.27411 -0.89579,-0.19886 -1.79157,-0.27411 -0.89579,-0.0493 -1.79157,-0.0251 h -0.89579 -2.68735 -9.85365 -31.35251 v -54.64295 l 0.89578,-0.89578 h 28.66516 9.85365 1.79157 0.89578 l 1.79157,-0.0251 0.89579,-0.0493 1.79157,-0.27411 1.79158,-0.34846 0.89578,-0.12452 0.89579,-0.0493 1.79157,-0.0994 0.89578,-0.12451 1.79157,-0.34846 0.89579,-0.17468 1.79158,-0.34757 0.89578,-0.17467 1.79157,-0.42281 0.89579,-0.24903 0.89578,-0.19887 1.79157,-0.44789 0.89579,-0.24903 1.79158,-0.42281 0.89578,-0.17468 1.79157,-0.37264 0.89579,-0.22395 1.79157,-0.69693 0.89578,-0.44789 1.79158,-0.77127 0.89578,-0.32338 1.79158,-0.62257 1.79157,-0.67184 0.89578,-0.42281 1.79157,-0.99522 0.89579,-0.54732 1.79157,-1.09465 0.89579,-0.54733 0.89578,-0.64765 0.89579,-0.62167 1.79157,-1.36877 1.79157,-1.51746 0.89579,-0.84652 1.79157,-1.76649 1.71722,-1.79157 1.51746,-1.79157 0.67184,-0.89579 1.3186,-1.79157 0.64765,-0.89579 1.06957,-1.79157 0.42282,-0.89578 0.89578,-1.79157 0.47298,-0.89579 0.37354,-0.89579 0.72111,-1.79157 0.5724,-1.79157 0.22395,-0.89579 0.24903,-0.89578 0.19886,-0.89579 0.24903,-0.89578 0.19886,-0.89579 0.4479,-1.79158 0.22394,-0.89578 0.27411,-1.79157 0.0743,-1.79157 v -1.79157 -1.79158 -3.58314 -2.68736 -0.89578 l -0.0251,-1.79158 -0.0493,-0.89579 -0.27411,-1.79157 -0.22394,-0.89578 -0.4479,-1.79157 -0.19886,-0.89579 -0.24903,-0.89578 -0.44789,-1.79158 -0.22395,-0.89578 -0.27321,-0.89579 -0.62257,-1.79157 -0.37354,-0.89578 -0.74619,-1.79158 -0.37355,-0.89578 -0.91998,-1.79158 -1.11973,-1.79157 -0.59749,-0.89578 -1.26932,-1.79157 -1.49238,-1.79157 -0.84652,-0.89579 -1.76649,-1.79158 -0.89578,-0.89578 -1.79158,-1.71722 -1.79157,-1.44311 -0.89579,-0.57241 -1.79157,-1.09465 -1.79157,-1.09465 -0.89578,-0.49806 -0.89579,-0.52224 -0.89579,-0.42281 -1.79157,-0.89579 -0.89578,-0.47298 -0.89579,-0.37354 -0.89578,-0.39773 -1.79158,-0.62257 -0.89578,-0.27321 -0.89579,-0.22395 -1.79157,-0.44789 -0.89579,-0.249034 -0.89578,-0.198865 -0.89579,-0.249028 -1.79157,-0.447892 -0.89578,-0.198865 -1.79158,-0.447892 -0.89579,-0.223947 -1.79157,-0.27411 -1.79157,-0.1487 -0.89578,-0.124514 -1.79157,-0.348461 -1.79158,-0.27411 -0.89579,-0.04927 -0.89578,-0.02508 h -1.79157 -5.37472 -7.16628 -1.79158 l -1.79157,0.02508 -0.89579,0.04927 -1.79157,0.27411 -1.79157,0.348461 -0.89578,0.124514 -1.79158,0.1487 -0.89579,0.124514 -1.79157,0.348461 -0.89578,0.174678 -1.79157,0.347564 -0.89579,0.174679 -0.89578,0.198864 -1.79158,0.298296 -0.89579,0.100328 -1.79157,0.298297 -1.79157,0.373542 -1.79157,0.34757 -0.89578,0.19976 -1.79158,0.52224 -0.89579,0.2983 -0.89578,0.29919 -1.79157,0.59659 -1.79157,0.59749 -1.79157,0.54734 -1.79158,0.49805 -0.89579,0.24813 -0.89578,0.34846 -0.89579,0.32338 -0.89578,0.37355 -1.79157,0.69692 -0.89579,0.37354 -1.79157,0.72111 -1.79158,0.69692 -0.89578,0.39772 -0.89579,0.37355 -0.89578,0.47297 -1.79157,0.89579 -0.89579,0.39773 -0.89578,0.49805 -0.89579,0.39773 -0.89579,0.49806 -0.89579,0.39773 -0.89578,0.49806 -0.89579,0.39773 -0.89578,0.49806 -1.79157,0.89578 -0.89579,0.42281 -0.89578,0.52224 -1.74141,0.99522 -0.49806,0.32428 -1.34368,0.62167 v -1.34368 -55.090838 l 1.34368,-0.895786 0.49806,-0.199044 0.89579,-0.497699 1.7414,-0.746458 1.79157,-0.696742 1.79157,-0.771362 0.89579,-0.447893 1.79157,-0.771361 1.79158,-0.696742 1.79157,-0.721645 0.89578,-0.373185 1.79157,-0.646936 0.89579,-0.298656 1.79157,-0.59713 1.79158,-0.597221 1.79157,-0.547415 0.89578,-0.223946 1.79157,-0.522601 0.89579,-0.348283 1.79157,-0.696742 1.79158,-0.622033 0.89578,-0.24885 0.89579,-0.199044 1.79157,-0.34846 0.89578,-0.174141 1.79157,-0.373185 1.79158,-0.34846 0.89579,-0.174141 1.79157,-0.42299 0.89578,-0.248849 0.89579,-0.199044 1.79157,-0.447893 1.79157,-0.447893 0.89579,-0.223947 1.79157,-0.273752 1.79157,-0.149238 1.79157,-0.273752 0.89579,-0.199044 1.79157,-0.273752 0.89579,-0.04972 1.79157,-0.09952 1.79157,-0.273752 0.89579,-0.199044 1.79157,-0.273752 0.89578,-0.04972 1.79158,-0.0249 h 0.89579 1.79157 l 1.79157,-0.07462 1.79157,-0.273752 0.89578,-0.199044 1.79158,-0.273752 0.89579,-0.04972 1.79157,-0.0249 h 0.89578 2.68736 10.74943 6.2705 1.79157 l 1.79158,0.0249 0.89578,0.04972 1.79158,0.273752 0.89578,0.199044 1.79157,0.273752 0.89579,0.04972 1.79157,0.0249 1.79157,0.0249 0.89579,0.04972 1.79157,0.273752 0.89578,0.199044 1.79157,0.298655 0.89579,0.09943 1.79158,0.298655 0.89578,0.199044 1.79157,0.298655 0.89579,0.09943 1.79157,0.298655 0.89578,0.223947 1.79157,0.447893 0.8958,0.199043 1.79157,0.447894 0.89578,0.248849 0.89579,0.199043 1.79157,0.447894 0.89578,0.248849 0.89579,0.199043 0.89578,0.24885 0.8958,0.199044 0.89578,0.248849 1.79157,0.497699 1.79157,0.622033 1.79157,0.721645 0.89579,0.373185 0.89578,0.323468 0.8958,0.323468 0.89578,0.298656 1.79157,0.59713 1.79157,0.622124 0.89579,0.323468 1.79157,0.771361 0.89578,0.472796 0.8958,0.398087 0.89578,0.497699 0.89579,0.398087 1.79157,0.895786 0.89578,0.497699 0.89579,0.398087 0.89578,0.497699 1.79157,0.895786 0.8958,0.42299 0.89578,0.522512 0.89579,0.497698 1.79157,1.144636 0.89578,0.597131 1.79157,1.194441 1.79157,1.194351 0.8958,0.622124 0.89578,0.622033 0.89579,0.67184 1.79157,1.343679 0.89578,0.671839 1.79157,1.51782 0.89579,0.84607 1.76649,1.69205 1.61779,1.51782 0.74619,0.696742 0.69692,0.746458 1.51746,1.617432 0.82144,0.870883 1.5927,1.791572 0.72111,0.895786 1.26934,1.791572 0.59748,0.895786 1.19409,1.791572 1.19408,1.791572 0.59749,0.895786 1.16989,1.791571 0.54733,0.895786 0.91997,1.79157 0.37354,0.895785 0.42281,0.895785 0.37354,0.895794 0.47298,0.895785 0.39774,0.895785 0.47297,0.895785 0.77127,1.79157 0.32338,0.895789 0.57241,1.79157 0.22394,0.89578 0.47298,1.79158 0.27321,0.89579 0.27411,0.89578 0.59749,1.79157 0.57241,1.79157 0.24813,0.89579 0.29919,1.79158 0.1487,1.79157 0.12452,0.89578 0.34846,1.79157 0.27411,1.79157 0.0493,0.89579 0.0251,1.79157 v 1.79157 l 0.0251,1.79158 0.17378,1.79157 0.32338,1.79157 0.0994,0.89578 v 0.89579 l -0.27321,1.79157 -0.1496,0.89579 -0.12451,0.89578 -0.0743,1.79157 v 1.79157 2.68737 1.79157 l -0.0251,1.79157 -0.0493,0.89578 -0.27411,1.79157 -0.34846,1.79158 -0.12452,0.89579 -0.1487,1.79157 -0.27411,1.79157 -0.22395,0.89578 -0.19886,0.89579 -0.47297,1.79157 -0.27322,0.89579 -0.54822,1.79157 -0.27321,0.89579 -0.22395,0.89578 -0.47297,1.79157 -0.57241,1.79157 -0.69692,1.79158 -0.72111,1.79157 -0.69693,1.79157 -0.77127,1.79157 -0.47297,0.89579 -0.89579,1.79157 -0.39773,0.89579 -0.49805,0.89579 -0.39773,0.89578 -0.92087,1.79157 -0.52224,0.89579 -0.49806,0.89578 -1.09465,1.79157 -1.09465,1.79158 -0.5724,0.89579 -0.67185,0.89578 -0.69692,0.89579 -1.44311,1.79157 -0.69692,0.89578 -1.51746,1.79157 -0.84652,0.89579 -0.8707,0.89579 -1.79157,1.79157 -0.8958,0.89579 -1.79157,1.71722 -1.79157,1.51746 -0.89578,0.67184 -0.89579,0.69692 -1.79157,1.3186 -0.89578,0.62257 -0.8958,0.62168 -1.79157,1.19408 -1.79157,1.19498 -0.89578,0.59659 -1.79157,1.14481 -0.89579,0.49806 -0.89578,0.52224 -0.8958,0.42281 -1.79157,0.89579 -0.89578,0.49805 -0.89579,0.39774 -0.89578,0.49806 -1.79157,0.8707 -1.79157,0.77127 -1.79158,0.64676 -0.89579,0.29919 -1.79157,0.64676 -0.89578,0.37354 -1.79157,0.72111 -0.89579,0.32337 -0.89578,0.32338 -1.79158,0.59749 -1.79157,0.54733 -0.89579,0.22394 -0.89578,0.27411 -0.89579,0.24814 -0.89578,0.34846 -0.89579,0.32337 -0.89578,0.37355 -1.74142,0.64676 -0.49805,0.19976 -1.34368,0.39773 m -214.988631,186.67193 -0.895786,0.22395 -1.791571,0.47298 -0.895786,0.24814 -1.791572,0.74708 -0.895786,0.52224 -0.895786,0.54733 -1.791572,1.44311 -0.895786,0.84652 -1.716953,1.76648 -0.746459,0.89579 -0.696742,0.89578 -1.09483,1.79158 -0.422989,0.89579 -0.472797,0.89578 -0.696742,1.79157 -0.223946,0.89579 -0.199044,0.89578 -0.348371,1.79157 -0.348371,1.79158 -0.124425,0.89579 v 1.79157 l 0.273752,1.79157 0.199044,0.89578 0.348371,1.79157 0.373274,1.79158 0.24876,0.89579 0.298655,0.89578 0.348371,0.89579 0.895786,1.79157 1.144546,1.79157 1.368581,1.76649 0.771362,0.84652 1.716953,1.44311 1.791572,1.09465 0.895786,0.42281 0.895786,0.47298 1.791572,0.77127 1.791572,0.62257 0.895785,0.24813 0.895786,0.17468 0.895786,0.12451 1.791572,0.0743 h 0.895786 1.791572 1.791572 0.895786 l 1.791572,-0.0743 1.791572,-0.29919 0.895786,-0.24813 1.791572,-0.64765 1.791572,-0.89579 0.895786,-0.54732 1.791572,-1.24425 0.870883,-0.72111 0.84607,-0.77127 1.492917,-1.71723 0.647026,-0.89578 1.169449,-1.79157 0.995128,-1.79157 0.722003,-1.79157 0.223946,-0.89579 0.198865,-0.89579 0.34846,-1.79157 0.198864,-0.89579 0.27411,-1.79157 0.07435,-1.79157 -0.02508,-0.89578 -0.04927,-0.89579 -0.27411,-1.79158 -0.223946,-0.89578 -0.447893,-1.79157 -0.223946,-0.89579 -0.572407,-1.79157 -0.34846,-0.89578 -0.895517,-1.79158 -1.144546,-1.79157 -0.647026,-0.8707 -1.492917,-1.61779 -0.84607,-0.72111 -1.766669,-1.24424 -1.791572,-1.07047 -0.895786,-0.49716 -0.895786,-0.37354 -0.895786,-0.37354 -0.895786,-0.24814 -0.895786,-0.27411 -1.791572,-0.42282 -1.791572,-0.27411 -0.895786,-0.0493 -0.895786,-0.0251 h -1.791572 -0.895786 l -1.791572,0.0743 -1.791572,0.27411 m 359.210171,0 -0.89579,0.22395 -0.89578,0.19887 -1.79157,0.52225 -1.79157,0.722 -0.89579,0.47297 -0.89579,0.42281 -1.79157,1.09465 -1.71722,1.44311 -0.77127,0.84652 -0.72111,0.8707 -1.24424,1.79157 -1.07047,1.79158 -0.49716,0.89579 -0.74708,1.79157 -0.52225,1.79157 -0.42282,1.79157 -0.27411,1.79157 -0.0493,0.89579 -0.0251,1.79157 v 0.89579 0.89578 l 0.0743,1.79157 0.2992,1.79157 0.24813,0.89579 0.62258,1.79158 0.39773,0.89578 0.37354,0.89579 0.47297,0.89578 0.42281,0.89579 1.09465,1.79157 1.44311,1.76649 1.71722,1.61779 1.79157,1.36876 1.79158,1.14392 1.79157,0.89579 1.79157,0.64765 0.89579,0.24813 0.89578,0.17468 0.89579,0.12451 1.79157,0.0743 h 0.89579 0.89579 1.79157 1.79157 0.89578 l 1.79157,-0.0743 0.89579,-0.14959 0.89579,-0.19887 1.79157,-0.69692 0.89579,-0.47297 1.79157,-0.94506 0.89578,-0.49805 1.79157,-1.169 0.87071,-0.64766 1.59271,-1.49238 0.69692,-0.84652 1.14482,-1.76649 0.49716,-0.89578 0.52224,-0.89579 0.8716,-1.79157 0.32338,-0.89578 0.47297,-1.79158 0.34756,-1.79157 0.37355,-1.79157 0.14959,-0.89579 0.12452,-0.89578 v -1.79157 l -0.27411,-1.79158 -0.19887,-0.89579 -0.34846,-1.79157 -0.19886,-0.89578 -0.22395,-0.89579 -0.69692,-1.79157 -0.47297,-0.89578 -0.42281,-0.89579 -1.09465,-1.79158 -1.44311,-1.79157 -0.84652,-0.89578 -0.87071,-0.8707 -0.89579,-0.84652 -1.79157,-1.44311 -1.79157,-1.06957 -0.89578,-0.37354 -1.79157,-0.62168 -0.89579,-0.27411 -1.79158,-0.42282 -1.79157,-0.27411 -0.89578,-0.0493 -1.79157,-0.0251 h -0.89579 -0.89578 l -1.79158,0.0743 -1.79157,0.27411 m -356.522813,2.53777 0.895786,-0.12451 0.895786,-0.0493 1.791572,0.0493 1.791572,0.27411 0.895786,0.22395 0.895786,0.19886 1.791572,0.52224 0.895786,0.37354 0.895786,0.37355 0.895786,0.49716 1.791572,1.07046 1.716953,1.24425 1.492917,1.49237 0.647026,0.84653 1.144546,1.76649 0.895786,1.79157 0.348371,0.89578 0.572318,1.79157 0.223946,0.89579 0.447893,1.79157 0.223947,0.89579 0.199043,1.79157 -0.07462,0.89579 -0.124424,0.89578 -0.373275,1.79157 -0.373184,1.79157 -0.223946,0.89579 -0.721646,1.79158 -0.995307,1.79157 -0.572318,0.89578 -0.597131,0.89579 -1.368582,1.71722 -1.617431,1.49238 -0.870883,0.64766 -0.895786,0.59659 -0.895786,0.54732 -1.791572,0.89579 -0.895786,0.34846 -1.791572,0.54732 -0.895786,0.17468 -0.895786,0.12452 -1.791572,0.0744 h -0.895786 l -1.791572,-0.0251 -0.895786,-0.0493 -1.791572,-0.2992 -0.895786,-0.24813 -1.791571,-0.62257 -0.895786,-0.39773 -0.895786,-0.37354 -0.895786,-0.47297 -0.895786,-0.42281 -1.766669,-1.09466 -1.617432,-1.44311 -1.368581,-1.71722 -1.144546,-1.79157 -0.895786,-1.79157 -0.647026,-1.79158 -0.24876,-0.89579 -0.373274,-1.79157 -0.323468,-1.79157 -0.149328,-0.89578 v -1.79157 l 0.298655,-1.79158 0.373184,-1.79157 0.223947,-0.89579 0.696742,-1.79157 0.472796,-0.89578 0.42299,-0.89579 1.09483,-1.79157 0.696742,-0.89579 1.592529,-1.76649 1.766669,-1.5927 0.895786,-0.69693 1.791572,-1.06956 1.791572,-0.74709 0.895785,-0.24813 1.791572,-0.47297 1.791572,-0.37355 m 359.210174,0 0.89579,-0.12451 0.89578,-0.0493 1.79157,0.0493 1.79157,0.27411 0.89579,0.22395 1.79158,0.47297 0.89578,0.24813 0.89579,0.37354 0.89578,0.37355 1.79157,1.06956 0.89579,0.69693 1.76649,1.5927 1.5927,1.76649 0.69693,0.89579 1.09465,1.79157 0.42281,0.89579 0.47298,0.89578 0.69692,1.79157 0.22394,0.89579 0.37265,1.79157 0.29919,1.79158 v 1.79157 l -0.14959,0.89578 -0.32338,1.79157 -0.37355,1.79157 -0.59659,1.79158 -0.8716,1.79157 -0.52224,0.89579 -0.49716,0.89578 -1.14482,1.71722 -0.69692,0.77127 -0.74619,0.72111 -0.84652,0.64765 -1.76649,1.16901 -0.89578,0.49806 -1.79157,0.94505 -0.89579,0.47298 -1.79158,0.69692 -1.79157,0.34846 -0.89578,0.0493 -1.79157,0.0251 h -1.79157 l -1.79158,-0.0744 -1.79157,-0.2992 -1.79157,-0.54732 -0.89579,-0.34846 -1.79157,-0.89579 -1.79157,-1.14391 -1.76649,-1.36877 -0.84652,-0.77127 -1.44311,-1.71722 -1.09465,-1.79157 -0.42281,-0.89579 -0.47298,-0.89578 -0.77127,-1.79158 -0.62257,-1.79157 -0.24813,-0.89579 -0.29919,-1.79157 -0.0493,-1.79157 0.0493,-0.89578 0.27411,-1.79158 0.22395,-0.89579 0.47297,-1.79157 0.24813,-0.89578 0.74709,-1.79157 0.49716,-0.89579 1.07046,-1.79157 1.24425,-1.76649 0.7211,-0.84652 1.6178,-1.44311 0.8707,-0.54733 1.79157,-0.97013 0.89579,-0.47298 1.79157,-0.722 1.79157,-0.52224 0.89578,-0.19886 z"
     id="path383" />
</svg>
